#!OML:ASF F:\VICON\USERDATA\INSTALL\rory3\rory3.ASF
:FULLY-SPECIFIED
:DEGREES
884
root 4.21945 15.9285 1.99041 23.759 -4.31696 -3.22067
lowerback 9.69472 -1.2279 1.98831
upperback 8.94632 -1.50447 -0.597971
thorax 3.83548 -0.637517 -1.64218
lowerneck -18.4289 -0.0501626 -2.39889
upperneck 38.9458 1.73486 -2.3102
head 17.437 -0.0273778 -0.292046
rclavicle -1.78906e-014 3.57812e-015
rhumerus -57.2469 73.9686 -57.6004
rradius 56.7906
rwrist -16.1853
rhand -8.41601 -40.8001
rfingers 7.12502
rthumb 17.5085 -70.0316
lclavicle -1.78906e-014 3.57812e-015
lhumerus -48.0083 -78.5194 41.2908
lradius 58.772
lwrist 62.9942
lhand -27.2282 -27.2605
lfingers 7.12502
lthumb -0.640443 2.71828
rfemur -76.4995 -1.49713 20.562
rtibia 37.6362
rfoot 36.4475 -2.0096
rtoes 3.23885
lfemur -57.8372 0.278393 -26.6188
ltibia 59.3806
lfoot -23.5925 6.31128
ltoes 9.39559
885
root 4.2183 15.9329 1.99136 23.6948 -4.33488 -3.15728
lowerback 9.72778 -1.22371 1.87863
upperback 8.98061 -1.5052 -0.596774
thorax 3.85608 -0.643118 -1.57928
lowerneck -18.4586 -0.0481013 -2.51247
upperneck 38.9097 1.71611 -2.15167
head 17.4204 -0.0289896 -0.202817
rclavicle -9.54166e-015 2.70347e-014
rhumerus -57.4751 74.0906 -57.8397
rradius 56.8056
rwrist -16.1703
rhand -8.2117 -40.8312
rfingers 7.12502
rthumb 17.7051 -70.0452
lclavicle -9.54166e-015 2.70347e-014
lhumerus -47.9153 -78.4195 41.3014
lradius 58.7112
lwrist 62.7936
lhand -27.6306 -27.6026
lfingers 7.12502
lthumb -1.02911 2.37467
rfemur -76.4013 -1.4687 20.4517
rtibia 37.5855
rfoot 36.424 -1.91754
rtoes 2.78723
lfemur -57.7433 0.29505 -26.6826
ltibia 59.326
lfoot -23.5677 6.23158
ltoes 9.66095
886
root 4.21798 15.9344 1.9921 23.6791 -4.40189 -3.12222
lowerback 9.74601 -1.20491 1.77539
upperback 8.99651 -1.48673 -0.595268
thorax 3.86584 -0.639207 -1.52095
lowerneck -18.3348 -0.0137241 -2.49785
upperneck 38.6586 1.76627 -2.19564
head 17.2508 -0.00718973 -0.212419
rclavicle -1.27222e-014 1.70955e-014
rhumerus -57.8097 74.3208 -58.0835
rradius 56.933
rwrist -16.1537
rhand -8.28195 -40.8936
rfingers 7.12502
rthumb 17.6375 -70.1136
lclavicle -1.27222e-014 1.70955e-014
lhumerus -47.8575 -78.3377 41.305
lradius 58.6882
lwrist 62.7348
lhand -27.2513 -27.4168
lfingers 7.12502
lthumb -0.662785 2.56193
rfemur -76.3572 -1.39431 20.3528
rtibia 37.5183
rfoot 36.4631 -1.72209
rtoes 2.28094
lfemur -57.7343 0.333833 -26.7255
ltibia 59.2974
lfoot -23.5631 6.15964
ltoes 9.92049
887
root 4.21879 15.9347 1.9891 23.7025 -4.37405 -3.17489
lowerback 9.7448 -1.21229 1.83852
upperback 9.00059 -1.49303 -0.578716
thorax 3.86983 -0.639541 -1.53878
lowerneck -17.9925 0.00989835 -2.49982
upperneck 38.2102 1.77541 -2.20568
head 16.9198 0.00624971 -0.20934
rclavicle 7.55382e-015 -1.31198e-014
rhumerus -57.6415 74.1091 -58.0712
rradius 56.782
rwrist -15.8098
rhand -8.49872 -40.8529
rfingers 7.12502
rthumb 17.4289 -70.0915
lclavicle 7.55382e-015 -1.31198e-014
lhumerus -47.7544 -78.2646 41.2741
lradius 58.6112
lwrist 62.7464
lhand -26.684 -27.2505
lfingers 7.12502
lthumb -0.114851 2.72925
rfemur -76.3395 -1.38072 20.414
rtibia 37.4348
rfoot 36.4683 -1.31447
rtoes 1.54227
lfemur -57.7849 0.354422 -26.6734
ltibia 59.3074
lfoot -23.6009 6.13969
ltoes 9.68147
